<?xml version="1.0" encoding="UTF-8" standalone="no"?>
<!-- Uploaded to: SVG Repo, www.svgrepo.com, Generator: SVG Repo Mixer Tools -->

<svg
   width="800px"
   height="800px"
   viewBox="0 0 24 24"
   fill="none"
   version="1.1"
   id="svg78"
   sodipodi:docname="icon-store.svg"
   inkscape:version="1.2.1 (9c6d41e, 2022-07-14)"
   xmlns:inkscape="http://www.inkscape.org/namespaces/inkscape"
   xmlns:sodipodi="http://sodipodi.sourceforge.net/DTD/sodipodi-0.dtd"
   xmlns="http://www.w3.org/2000/svg"
   xmlns:svg="http://www.w3.org/2000/svg">
  <defs
     id="defs82" />
  <sodipodi:namedview
     id="namedview80"
     pagecolor="#ffffff"
     bordercolor="#000000"
     borderopacity="0.25"
     inkscape:showpageshadow="2"
     inkscape:pageopacity="0.0"
     inkscape:pagecheckerboard="0"
     inkscape:deskcolor="#d1d1d1"
     showgrid="false"
     inkscape:zoom="1.31625"
     inkscape:cx="207.02754"
     inkscape:cy="403.03894"
     inkscape:window-width="1895"
     inkscape:window-height="1205"
     inkscape:window-x="75"
     inkscape:window-y="25"
     inkscape:window-maximized="0"
     inkscape:current-layer="svg78" />
  <path
     style="fill:#ffffff;stroke:#ffffff;stroke-width:0.99999;stroke-linecap:round;paint-order:markers stroke fill"
     d="M 5.58579,3.5857899 13.9369,3.1522401 18.8478,8.0630601 18.87027,19.516865 17.6966,20.823806 5.58579,20.4142 Z"
     id="path289" />
  <path
     d="M9 12H15"
     stroke="#323232"
     stroke-width="2"
     stroke-linecap="round"
     stroke-linejoin="round"
     id="path72" />
  <path
     d="M9 15H15"
     stroke="#323232"
     stroke-width="2"
     stroke-linecap="round"
     stroke-linejoin="round"
     id="path74" />
  <path
     d="M17.8284 6.82843C18.4065 7.40649 18.6955 7.69552 18.8478 8.06306C19 8.4306 19 8.83935 19 9.65685L19 17C19 18.8856 19 19.8284 18.4142 20.4142C17.8284 21 16.8856 21 15 21H9C7.11438 21 6.17157 21 5.58579 20.4142C5 19.8284 5 18.8856 5 17L5 7C5 5.11438 5 4.17157 5.58579 3.58579C6.17157 3 7.11438 3 9 3H12.3431C13.1606 3 13.5694 3 13.9369 3.15224C14.3045 3.30448 14.5935 3.59351 15.1716 4.17157L17.8284 6.82843Z"
     stroke="#323232"
     stroke-width="2"
     stroke-linejoin="round"
     id="path76" />
</svg>
